<?xml version="1.0" encoding="UTF-8"?>
<!DOCTYPE svg PUBLIC "-//W3C//DTD SVG 1.1//EN" "http://www.w3.org/Graphics/SVG/1.1/DTD/svg11.dtd">
<!-- Creator: CorelDRAW -->
<svg xmlns="http://www.w3.org/2000/svg" xml:space="preserve" width="24px" height="24px" version="1.1" style="shape-rendering:geometricPrecision; text-rendering:geometricPrecision; image-rendering:optimizeQuality; fill-rule:evenodd; clip-rule:evenodd"
viewBox="0 0 24 24"
 xmlns:xlink="http://www.w3.org/1999/xlink"
 xmlns:xodm="http://www.corel.com/coreldraw/odm/2003">
 <defs>
  <style type="text/css">
   <![CDATA[
    .fil0 {fill:white}
   ]]>
  </style>
 </defs>
 <g id="Capa_x0020_1">
  <metadata id="CorelCorpID_0Corel-Layer"/>
  <path class="fil0" d="M12 0.296c-6.63,0 -12,5.37 -12,12 0,5.31 3.435,9.795 8.205,11.385 0.6,0.105 0.825,-0.255 0.825,-0.57 0,-0.285 -0.015,-1.23 -0.015,-2.235 -3.015,0.555 -3.795,-0.735 -4.035,-1.41 -0.135,-0.345 -0.72,-1.41 -1.23,-1.695 -0.42,-0.225 -1.02,-0.78 -0.015,-0.795 0.945,-0.015 1.62,0.87 1.845,1.23 1.08,1.815 2.805,1.305 3.495,0.99 0.105,-0.78 0.42,-1.305 0.765,-1.605 -2.67,-0.3 -5.46,-1.335 -5.46,-5.925 0,-1.305 0.465,-2.385 1.23,-3.225 -0.12,-0.3 -0.54,-1.53 0.12,-3.18 0,0 1.005,-0.315 3.3,1.23 0.96,-0.27 1.98,-0.405 3,-0.405 1.02,0 2.04,0.135 3,0.405 2.295,-1.56 3.3,-1.23 3.3,-1.23 0.66,1.65 0.24,2.88 0.12,3.18 0.765,0.84 1.23,1.905 1.23,3.225 0,4.605 -2.805,5.625 -5.475,5.925 0.435,0.375 0.81,1.095 0.81,2.22 0,1.605 -0.015,2.895 -0.015,3.3 0,0.315 0.225,0.69 0.825,0.57 2.382,-0.804 4.453,-2.335 5.919,-4.377 1.466,-2.043 2.256,-4.494 2.256,-7.008 0,-6.63 -5.37,-12 -12,-12z"/>
 </g>
</svg>
