<?xml version="1.0" encoding="UTF-8"?>
<!DOCTYPE svg PUBLIC "-//W3C//DTD SVG 1.1//EN" "http://www.w3.org/Graphics/SVG/1.1/DTD/svg11.dtd">
<!-- Creator: CorelDRAW -->
<svg xmlns="http://www.w3.org/2000/svg" xml:space="preserve" width="129px" height="129px" version="1.1" style="shape-rendering:geometricPrecision; text-rendering:geometricPrecision; image-rendering:optimizeQuality; fill-rule:evenodd; clip-rule:evenodd"
viewBox="0 0 129 129"
 xmlns:xlink="http://www.w3.org/1999/xlink"
 xmlns:xodm="http://www.corel.com/coreldraw/odm/2003">
 <defs>
  <style type="text/css">
   <![CDATA[
    .fil0 {fill:white;fill-rule:nonzero}
   ]]>
  </style>
 </defs>
 <g id="Capa_x0020_1">
  <metadata id="CorelCorpID_0Corel-Layer"/>
  <path class="fil0" d="M128 65c0,35.07 -28.43,63.5 -63.5,63.5l0 1c-35.622,0 -64.5,-28.878 -64.5,-64.5l1 0c0,35.07 28.43,63.5 63.5,63.5l0 1c35.623,0 64.5,-28.878 64.5,-64.5l-1 0zm-128 0c0,-35.622 28.878,-64.5 64.5,-64.5l0 1c-35.07,0 -63.5,28.43 -63.5,63.5l-1 0zm64.5 -64.5c35.623,0 64.5,28.878 64.5,64.5l-1 0c0,-35.07 -28.43,-63.5 -63.5,-63.5l0 -1z"/>
 </g>
</svg>
